<svg id="Layer_1" data-name="Layer 1" xmlns="http://www.w3.org/2000/svg" viewBox="0 0 180 180"><defs><style>.cls-1{fill:#e41a1e;}.cls-2{fill:#fff;}</style></defs><circle class="cls-1" cx="90" cy="90" r="90"/><path class="cls-2" d="M143.59,51.83c-.27,6.62-.52,13.24-.81,19.86-.07,1.71-.17,3.42-.4,5.12a14.71,14.71,0,0,1-.88,3.31,7.9,7.9,0,0,0,1.08,7.5,3.62,3.62,0,0,1,.61,2.67,21.93,21.93,0,0,0,.62,9.89,7.17,7.17,0,0,1,.17,2.13c0,4.13,0,8.27-.15,12.4a29.15,29.15,0,0,1-1.06,5.83c-.43,1.66-1.18,3.24-1.71,4.88-.75,2.3-.92,4.69.85,6.51,3.27,3.39,2.29,7,.88,10.65a6.92,6.92,0,0,1-5.55,4.3c-2.11.42-4.19,1-6.3,1.33a5,5,0,0,1-2.46-.22,4.8,4.8,0,0,0-3.36-.06,8.24,8.24,0,0,1-5.81.16,9,9,0,0,0-3.63-.05c-1,.06-1.88.35-2.83.48a3.89,3.89,0,0,1-3.14-.8,3.2,3.2,0,0,0-3.23-.41,12.07,12.07,0,0,1-3.35.31,17,17,0,0,1-2.73-.36,5.27,5.27,0,0,1-2-.53,7.25,7.25,0,0,0-4-.93c-.93,0-1.87-.32-2.8-.27a18.28,18.28,0,0,0-3.36.56c-1.41.34-2.79.81-4.2,1.18a4.25,4.25,0,0,1-1.88.22,30.13,30.13,0,0,0-9-.34c-2.33.15-4.67.07-7,.18-3.06.14-6.11.43-9.17.57-3.29.15-6.59.11-9.88.33A7.56,7.56,0,0,1,39.42,144c-1.89-3.33-3.64-6.66-3-10.68.16-1,.29-2,.52-2.92a2.51,2.51,0,0,0-.75-2.8,1.37,1.37,0,0,1-.3-1c.18-2.13.41-4.25.64-6.38.1-.94.31-1.88.34-2.83.06-2,.08-4,0-6.06-.07-2.44-.28-4.89-.31-7.33a4.45,4.45,0,0,1,.69-1.8,53.33,53.33,0,0,0,2.52-5,13.42,13.42,0,0,0,.7-4.14,3.45,3.45,0,0,0-1.92-3A2.44,2.44,0,0,1,37.38,88c-.13-3.55-.35-7.11-.37-10.67,0-3.87.19-7.74.18-11.61a4.82,4.82,0,0,1,1.71-4,2,2,0,0,0,.85-2.24c-.21-1.28.41-2.75.87-4.07s.45-1.55-.7-2.29c-.18-.11-.28-.34-.42-.52A39.4,39.4,0,0,1,37,49a5.94,5.94,0,0,1-.85-2.89c0-2.87.28-5.74.43-8.61a1.93,1.93,0,0,1,1.3-1.83,6.57,6.57,0,0,0,3.33-3.18,2.23,2.23,0,0,1,1.65-1,41,41,0,0,1,7.1.16c5.45.8,10.86,1.87,16.28,2.82a3.6,3.6,0,0,0,3.08-.6A6.53,6.53,0,0,1,72.91,33c4.52,0,9,.32,13.56.31,8,0,16-.2,24-.28a4.59,4.59,0,0,1,1.84.43,12.52,12.52,0,0,1,2.18,1.27A7.14,7.14,0,0,0,119.65,36a8.79,8.79,0,0,0,1.18-.35,4.89,4.89,0,0,1,1.93-.46,2.49,2.49,0,0,0,2.54-.94A4.7,4.7,0,0,1,128,33c2.84-.76,5.71-.07,8.56-.42,1.7-.21,2.72,1.24,3.39,2.53a25.11,25.11,0,0,1,3.3,11.25c0,1.83,0,3.67,0,5.51ZM59,109.8V98.92c0-1.42,0-2.84,0-4.25,0-1,.46-1.17,1.25-.73,1.94,1.08,3.86,2.22,5.85,3.18a2.89,2.89,0,0,0,2,0,33.51,33.51,0,0,0,3.26-1.68l3.9-2c.12.33.22.47.21.61-.05,3.75-.07,7.51-.21,11.26A4.26,4.26,0,0,1,72.71,109c-1.15.59-1.26.88-.59,2,.83,1.38,1.81,2.68,2.52,4.12a1.39,1.39,0,0,0,1.92.84c1.43-.45,2.86-.88,4.24-1.47a13.65,13.65,0,0,0,5.48-4.07c1.66-2.08,1.7-4.52,1.69-7,0-7-.09-14-.09-20.93,0-.92-.34-1.09-1.14-1.08-3.33,0-6.67,0-10,0-.37,0-.74.06-1.24.1.51,2.11-.83,2.91-2.3,3.66s-3.13,1.62-4.64,2.52a2.28,2.28,0,0,1-2.48,0C64,86.7,61.9,85.71,59.89,84.52c-.48-.29-.66-1.17-.85-1.81-.09-.31.13-.7.27-1.3l-15.78-.92c0,.73-.05,1.22,0,1.7q.8,7.14,1.62,14.28c.45,4,.94,7.91,1.33,11.87.12,1.16.57,1.51,1.73,1.48,3.18-.08,6.36,0,9.54,0ZM90.06,72.21l.08-.4-9-8.94c-.55-.54-.59-1,.19-1.45a9.81,9.81,0,0,0,1.61-1.11c4.09-3.41,6.19-10.6,4.53-15.57a1.26,1.26,0,0,0-.89-.65,19.44,19.44,0,0,0-2.29,0H64.12c-.78,0-1.52,0-1.21-1.18A.82.82,0,0,0,62,41.77c-3.6,0-7.2,0-10.81,0a1.09,1.09,0,0,0-.72.63c-.18.5,0,1.3-.31,1.52s-1.1.12-1.67.14a11,11,0,0,1-1.15,0c-.76-.05-1,.31-1,1,0,1.53,0,3.07,0,4.6,0,.74.28,1.05,1,1,1,0,2,0,3,0,0,.45.13.78.13,1.12,0,6.48,0,13,0,19.43,0,.82.19,1.13,1,1.13,3.48,0,7,0,10.46,0,.83,0,1-.38,1-1.15-.07-1.49-.1-3-.06-4.48.09-3.35-.71-3.13,3.19-3.26a4,4,0,0,1,3.33,1.41c2.05,2.23,4.16,4.4,6.18,6.65a2.29,2.29,0,0,0,1.88.84c3.72,0,7.44,0,11.15,0A11,11,0,0,0,90.06,72.21Zm28.6-10.75v1.33c0,3.33,0,6.67,0,10,0,1.43.09,1.52,1.5,1.31,3.18-.48,6.36-1,9.55-1.42,1.46-.22,1.56-.33,1.62-1.82.11-3,.26-6,.4-9s.45-6.27.41-9.4c-.07-4.42-2.34-7-6.68-7.73a48.87,48.87,0,0,0-6.39-.64c-3.29-.1-6.59,0-9.88,0-.44,0-.88,0-1.33-.06l-.1-2.26c-3.66,0-7.18,0-10.7,0-1.07,0-1.61.22-1.4,1.38.14.79-.29,1-1,1s-1.61,0-2.42,0c-.65,0-1,.27-1,1,0,1.57,0,3.14,0,4.71,0,.69.33,1,1,.92s1.61,0,2.42,0,.93.25.92,1c0,3.18,0,6.36,0,9.54a3.3,3.3,0,0,1-.67,2A37.77,37.77,0,0,1,91.73,66a.86.86,0,0,0,.13.42c1.11,1.78,2.21,3.58,3.4,5.32a1.37,1.37,0,0,0,1.19.31,21.9,21.9,0,0,0,3.28-1c4.06-1.71,7.57-4,8.27-8.84a1.25,1.25,0,0,1,.94-.72C112.11,61.44,115.29,61.46,118.66,61.46ZM117.25,145a2.79,2.79,0,0,0,.63,0l11-2c.88-.15,1-.73,1-1.51-.05-8.7-.09-17.4-.07-26.09,0-1-.32-1.22-1.17-1.22-3.45,0-6.9,0-10.34,0-.81,0-1.06.3-1.05,1.08.05,2.19,0,4.37,0,6.56,0,1.27-.18,1.38-1.3.82-3.43-1.71-6.86-3.42-10.26-5.16a1.3,1.3,0,0,1-.53-.88,6.19,6.19,0,0,1,0-1.49.89.89,0,0,0-.88-1.1c-3.16-.29-6.33-.63-9.5-.81-1.56-.1-2.26.68-2.26,2.18,0,8.74,0,17.47,0,26.21,0,.84.25,1.14,1.12,1.13,3.4-.05,6.81,0,10.22,0,1.42,0,1.47-.09,1.46-1.52,0-4.56,0-9.11,0-13.67,0-.94.4-1,1.07-.64s1.49.76,2.24,1.14c2.12,1.08,4.25,2.11,6.34,3.24a4.07,4.07,0,0,1,2.38,4c-.08,2.06,0,4.13,0,6.2Zm-21-65.72c0,.51,0,.85,0,1.18.05.7-.26.92-.94,1-1,0-2.4-.15-2.87.41s-.21,2-.25,3a1.77,1.77,0,0,0,0,.23c0,3,0,3,2.93,3.13.9,0,1.11.35,1.11,1.24,0,4.41.07,8.81.09,13.22a4,4,0,0,0,1.51,3.08,15.45,15.45,0,0,0,10,4c6.82.26,13.64.13,20.46.17.79,0,1-.35,1-1.05,0-1.23,0-2.46,0-3.68,0-2,0-2-2-2-5.4,0-10.81,0-16.21,0-1.5,0-2.73-.49-2.47-2.55.2-1.58.07-1.6,1.7-1.6,5.87,0,11.73,0,17.59.1,1,0,1.48-.25,1.42-1.34a33.63,33.63,0,0,1,0-4.14c.09-1.09-.3-1.36-1.33-1.35-5.56,0-11.12,0-16.67,0-2.69,0-2.64,0-2.7-2.75,0-1.14.35-1.41,1.44-1.4,6,.08,12,.08,18,.14.89,0,1.24-.27,1.2-1.18,0-1.38,0-2.76,0-4.14s0-1.49-1.54-1.49c-5.94,0-11.88,0-17.82,0-.91,0-1.34-.2-1.29-1.2,0-.29-.41-.88-.64-.88C104,79.22,100.21,79.24,96.21,79.24Zm-9.38,63.41c-.37-.32-.49-.48-.64-.54a2.38,2.38,0,0,1-1.67-2.56c0-2.41,0-4.83-.07-7.24a2.16,2.16,0,0,1,1.12-2.08,18.83,18.83,0,0,0,2.51-1.81,4.93,4.93,0,0,0,.77-1.2,3.71,3.71,0,0,0-1.18-.52c-5.16-.15-10.32-.26-15.48-.36-.72,0-1.1.33-1.1,1.13,0,4.37,0,8.74,0,13.1A1.85,1.85,0,0,0,72,142a8.49,8.49,0,0,0,2.89.69c3.4.17,6.8.25,10.21.32A9.83,9.83,0,0,0,86.83,142.65Zm-6.46-18.31a24.76,24.76,0,0,0,2.86-.41,1.22,1.22,0,0,0,.69-.89,1.3,1.3,0,0,0-.52-1c-2-1.45-4.24-1.3-6.49-1a1.82,1.82,0,0,0-1.36.91c-.21.79.4,1.35,1.18,1.55C78,123.82,79.31,124.09,80.37,124.34Z"/><path class="cls-2" d="M75.68,50.74a5.45,5.45,0,0,1-1.58,3.73,7,7,0,0,1-5.7,2.69c-1.53,0-3.06,0-4.59,0-.72,0-1-.22-1-1,0-1.49,0-3,0-4.47,0-.7.28-1,.94-1Z"/><path class="cls-2" d="M118.67,50.68c0,1.23.06,2.33,0,3.42a1.13,1.13,0,0,1-.81.76c-3,0-6,0-9,0-.63,0-.91-.23-.88-.87,0-.8,0-1.61,0-2.41,0-.61.19-.93.85-.93Z"/></svg>