<svg width="21" height="21" viewBox="0 0 21 21" fill="none" xmlns="http://www.w3.org/2000/svg">
<path d="M4.35292 5.4707H3.23528C2.64245 5.4707 2.07389 5.70621 1.6547 6.12541C1.2355 6.5446 1 7.11316 1 7.706V17.7648C1 18.3577 1.2355 18.9262 1.6547 19.3454C2.07389 19.7646 2.64245 20.0001 3.23528 20.0001H13.294C13.8869 20.0001 14.4554 19.7646 14.8746 19.3454C15.2938 18.9262 15.5293 18.3577 15.5293 17.7648V16.6472" stroke="#FEB33C" stroke-width="2" stroke-linecap="round" stroke-linejoin="round"/>
<path d="M14.4119 3.23541L17.7648 6.58835M19.3127 5.00688C19.7529 4.5667 20.0002 3.96969 20.0002 3.34718C20.0002 2.72467 19.7529 2.12765 19.3127 1.68747C18.8725 1.24729 18.2755 1 17.653 1C17.0305 1 16.4335 1.24729 15.9933 1.68747L6.58838 11.0589V14.4119H9.9413L19.3127 5.00688Z" stroke="#FEB33C" stroke-width="2" stroke-linecap="round" stroke-linejoin="round"/>
</svg>
