<svg width="25" height="25" viewBox="0 0 25 25" fill="none" xmlns="http://www.w3.org/2000/svg">
<path d="M22.5 0H2.5C1.8375 0 1.2 0.2625 0.7375 0.7375C0.2625 1.2 0 1.8375 0 2.5V17.5C0 18.1625 0.2625 18.8 0.7375 19.2625C1.2 19.7375 1.8375 20 2.5 20H7.5L12.5 25L17.5 20H22.5C23.1625 20 23.8 19.7375 24.2625 19.2625C24.725 18.7875 25 18.1625 25 17.5V2.5C25 1.8375 24.7375 1.2 24.2625 0.7375C23.8 0.2625 23.1625 0 22.5 0ZM2.5 17.5V2.5H22.5V17.5H16.4625L12.5 21.4625L8.5375 17.5M10.0625 5.05C10.7375 4.6 11.625 4.375 12.7375 4.375C13.9125 4.375 14.85 4.6375 15.525 5.15C16.2 5.675 16.5375 6.375 16.5375 7.25C16.5375 7.8 16.35 8.2875 15.9875 8.75C15.625 9.2 15.15 9.55 14.575 9.8125C14.25 10 14.0375 10.1875 13.925 10.4C13.8125 10.625 13.75 10.9 13.75 11.25H11.25C11.25 10.625 11.375 10.2 11.6125 9.9C11.875 9.6 12.3 9.25 12.95 8.85C13.275 8.675 13.5375 8.45 13.75 8.175C13.925 7.9125 14.025 7.6 14.025 7.25C14.025 6.875 13.9125 6.6 13.6875 6.3875C13.4625 6.1625 13.125 6.0625 12.7375 6.0625C12.4 6.0625 12.125 6.15 11.875 6.325C11.675 6.5 11.55 6.7625 11.55 7.1125H9.0875C9.025 6.25 9.375 5.5 10.0625 5.05ZM11.25 15V12.5H13.75V15H11.25Z" fill="#FAF9F6"/>
</svg>
