<svg width="25" height="23" viewBox="0 0 25 23" fill="none" xmlns="http://www.w3.org/2000/svg">
<path d="M6.25 17.5C6.60417 17.5 6.90125 17.38 7.14125 17.14C7.38125 16.9 7.50083 16.6033 7.5 16.25C7.49917 15.8967 7.37917 15.6 7.14 15.36C6.90083 15.12 6.60417 15 6.25 15C5.89583 15 5.59917 15.12 5.36 15.36C5.12083 15.6 5.00083 15.8967 5 16.25C4.99917 16.6033 5.11917 16.9004 5.36 17.1412C5.60083 17.3821 5.8975 17.5017 6.25 17.5ZM6.25 5C5.89583 5 5.59917 5.12 5.36 5.36C5.12083 5.6 5.00083 5.89667 5 6.25V11.25C5 11.6042 5.12 11.9013 5.36 12.1413C5.6 12.3813 5.89667 12.5008 6.25 12.5C6.60333 12.4992 6.90042 12.3792 7.14125 12.14C7.38208 11.9008 7.50167 11.6042 7.5 11.25V6.25C7.5 5.89583 7.38 5.59917 7.14 5.36C6.9 5.12083 6.60333 5.00083 6.25 5ZM18.75 17.5C19.1042 17.5 19.4012 17.38 19.6412 17.14C19.8812 16.9 20.0008 16.6033 20 16.25C19.9992 15.8967 19.8792 15.6 19.64 15.36C19.4008 15.12 19.1042 15 18.75 15H12.5C12.1458 15 11.8492 15.12 11.61 15.36C11.3708 15.6 11.2508 15.8967 11.25 16.25C11.2492 16.6033 11.3692 16.9004 11.61 17.1412C11.8508 17.3821 12.1475 17.5017 12.5 17.5H18.75ZM18.75 12.5C19.1042 12.5 19.4012 12.38 19.6412 12.14C19.8812 11.9 20.0008 11.6033 20 11.25C19.9992 10.8967 19.8792 10.6 19.64 10.36C19.4008 10.12 19.1042 10 18.75 10H12.5C12.1458 10 11.8492 10.12 11.61 10.36C11.3708 10.6 11.2508 10.8967 11.25 11.25C11.2492 11.6033 11.3692 11.9004 11.61 12.1413C11.8508 12.3821 12.1475 12.5017 12.5 12.5H18.75ZM18.75 7.5C19.1042 7.5 19.4012 7.38 19.6412 7.14C19.8812 6.9 20.0008 6.60333 20 6.25C19.9992 5.89667 19.8792 5.6 19.64 5.36C19.4008 5.12 19.1042 5 18.75 5H12.5C12.1458 5 11.8492 5.12 11.61 5.36C11.3708 5.6 11.2508 5.89667 11.25 6.25C11.2492 6.60333 11.3692 6.90042 11.61 7.14125C11.8508 7.38208 12.1475 7.50167 12.5 7.5H18.75ZM2.5 22.5C1.8125 22.5 1.22417 22.2554 0.735 21.7663C0.245833 21.2771 0.000833333 20.6883 0 20V2.5C0 1.8125 0.245 1.22417 0.735 0.735C1.225 0.245833 1.81333 0.000833333 2.5 0H22.5C23.1875 0 23.7763 0.245 24.2663 0.735C24.7563 1.225 25.0008 1.81333 25 2.5V20C25 20.6875 24.7554 21.2763 24.2663 21.7663C23.7771 22.2563 23.1883 22.5008 22.5 22.5H2.5ZM2.5 20H22.5V2.5H2.5V20Z" fill="#FAF9F6"/>
</svg>
