<svg width="487" height="724" viewBox="0 0 487 724" fill="none" xmlns="http://www.w3.org/2000/svg">
<path d="M152.138 66.7227H117.073V86.2376H152.138V66.7227Z" fill="#A52321"/>
<path d="M152.138 132.323H117.073V364.185H152.138V132.323Z" fill="#A52321"/>
<path d="M165.752 86.2373H103.457V98.624H165.752V86.2373Z" fill="#BB9870"/>
<path d="M117.074 364.185C111.647 370.036 108.63 377.721 108.63 385.7V392.396H160.579V385.7C160.579 377.721 157.562 370.036 152.135 364.185H117.074Z" fill="#313131"/>
<path d="M482.947 0C457.403 12.3553 405.495 16.4745 343.698 16.4745C281.902 16.4745 244 16.4745 244 16.4745C244 16.4745 206.098 16.4745 144.301 16.4745C82.5052 16.4745 30.5971 12.3553 5.05312 0C5.05312 0 1.75791 44.4818 47.0756 44.4818C92.3933 44.4818 244 44.4818 244 44.4818C244 44.4818 395.609 44.4818 440.924 44.4818C486.242 44.4818 482.947 0 482.947 0Z" fill="#313131"/>
<path d="M47.0732 44.4819C54.4887 63.4284 72.6172 66.7229 96.5112 66.7229H152.138C194.533 66.7229 243.998 66.7229 243.998 66.7229C243.998 66.7229 293.465 66.7229 335.86 66.7229H370.924H391.486C415.38 66.7229 433.509 63.4284 440.924 44.4819C395.607 44.4819 244 44.4819 244 44.4819C244 44.4819 92.391 44.4819 47.0732 44.4819Z" fill="#A52321"/>
<path d="M370.924 66.7227H335.859V86.2376H370.924V66.7227Z" fill="#A52321"/>
<path d="M370.924 132.323H335.859V364.185H370.924V132.323Z" fill="#A52321"/>
<path d="M384.538 86.2373H322.243V98.624H384.538V86.2373Z" fill="#BB9870"/>
<path d="M430.448 98.6216H57.5469V107.978H430.448V98.6216Z" fill="#313131"/>
<path d="M424.335 107.98H63.6631V132.323H424.335V107.98Z" fill="#A52321"/>
<path d="M327.416 385.703V392.399H379.365V385.703C379.365 377.724 376.348 370.039 370.922 364.188H335.857C330.433 370.037 327.416 377.724 327.416 385.703Z" fill="#313131"/>
<rect width="487" height="542" transform="translate(0 182)" fill="#A52321"/>
</svg>
